<svg height="140" viewBox="0 0 740 1009" fill="#fafa00" xmlns="http://www.w3.org/2000/svg" style='margin: 0 auto'>
<path d="M526.713 910.117C521.613 907.771 516.054 906.598 510.036 906.598C504.528 906.598 500.397 907.771 497.643 910.117C494.889 912.361 493.512 915.268 493.512 918.838C493.512 922.408 494.685 925.162 497.031 927.1C499.377 928.936 503.508 930.721 509.424 932.455L514.014 933.832C519.828 935.566 524.265 938.116 527.325 941.482C530.385 944.848 531.915 948.979 531.915 953.875C531.915 956.731 531.354 959.434 530.232 961.984C529.11 964.432 527.478 966.574 525.336 968.41C523.194 970.246 520.491 971.674 517.227 972.694C514.065 973.714 510.393 974.224 506.211 974.224C501.621 974.224 497.592 973.816 494.124 973C490.656 972.286 487.596 971.317 484.944 970.093L487.086 963.82C489.738 965.146 492.492 966.166 495.348 966.88C498.204 967.492 501.57 967.798 505.446 967.798C511.26 967.798 515.748 966.676 518.91 964.432C522.072 962.188 523.653 958.975 523.653 954.793C523.653 951.529 522.48 948.724 520.134 946.378C517.89 943.93 513.861 941.788 508.047 939.952L503.151 938.422C491.217 934.648 485.25 928.375 485.25 919.603C485.25 916.747 485.811 914.146 486.933 911.8C488.157 909.352 489.789 907.312 491.829 905.68C493.971 903.946 496.47 902.62 499.326 901.702C502.284 900.682 505.548 900.172 509.118 900.172C512.382 900.172 515.748 900.427 519.216 900.937C522.684 901.447 525.846 902.416 528.702 903.844L526.713 910.117Z" fill="#777777"/>
<path d="M458.029 973V901.09H465.985V973H458.029ZM462.16 882.577C460.528 882.577 459.1 882.067 457.876 881.047C456.754 879.925 456.193 878.395 456.193 876.457C456.193 874.417 456.754 872.836 457.876 871.714C458.998 870.592 460.375 870.031 462.007 870.031C463.537 870.031 464.863 870.592 465.985 871.714C467.209 872.734 467.821 874.315 467.821 876.457C467.821 878.497 467.26 880.027 466.138 881.047C465.016 882.067 463.69 882.577 462.16 882.577Z" fill="#777777"/>
<path d="M427.44 864.37H435.396V973H428.97L427.899 966.268H427.593C425.451 968.614 422.748 970.552 419.484 972.082C416.22 973.51 411.987 974.224 406.785 974.224C402.909 974.224 399.084 973.51 395.31 972.082C391.638 970.552 388.272 968.257 385.212 965.197C382.254 962.137 379.857 958.312 378.021 953.722C376.185 949.03 375.267 943.522 375.267 937.198C375.267 931.588 375.981 926.488 377.409 921.898C378.939 917.308 381.132 913.432 383.988 910.27C386.844 907.006 390.261 904.507 394.239 902.773C398.319 901.039 402.909 900.172 408.009 900.172C415.761 900.172 422.238 902.467 427.44 907.057V864.37ZM427.44 915.166C425.4 912.514 422.697 910.423 419.331 908.893C415.965 907.363 412.65 906.598 409.386 906.598C406.02 906.598 402.756 907.159 399.594 908.281C396.534 909.301 393.78 910.984 391.332 913.33C388.986 915.676 387.099 918.787 385.671 922.663C384.243 926.539 383.529 931.231 383.529 936.739C383.529 942.451 384.243 947.296 385.671 951.274C387.099 955.15 388.986 958.312 391.332 960.76C393.78 963.208 396.534 964.993 399.594 966.115C402.654 967.237 405.816 967.798 409.08 967.798C413.466 967.798 417.189 966.982 420.249 965.35C423.411 963.718 425.808 961.678 427.44 959.23V915.166Z" fill="#777777"/>
<path d="M362.468 937.045H311.213V939.187C311.213 948.163 313.61 955.201 318.404 960.301C323.3 965.299 329.93 967.798 338.294 967.798C344.924 967.798 351.146 966.676 356.96 964.432L358.796 970.552C356.144 971.674 352.931 972.541 349.157 973.153C345.485 973.867 341.711 974.224 337.835 974.224C333.041 974.224 328.502 973.51 324.218 972.082C320.036 970.654 316.364 968.461 313.202 965.503C310.04 962.443 307.541 958.618 305.705 954.028C303.869 949.336 302.951 943.726 302.951 937.198C302.951 931.588 303.716 926.488 305.246 921.898C306.776 917.308 308.969 913.432 311.825 910.27C314.681 907.006 318.047 904.507 321.923 902.773C325.799 901.039 330.134 900.172 334.928 900.172C339.008 900.172 342.731 900.937 346.097 902.467C349.565 903.895 352.472 905.986 354.818 908.74C357.266 911.494 359.153 914.809 360.479 918.685C361.805 922.561 362.468 926.845 362.468 931.537V937.045ZM354.206 930.619C354.206 927.661 353.849 924.754 353.135 921.898C352.421 918.94 351.248 916.339 349.616 914.095C348.086 911.851 346.046 910.066 343.496 908.74C341.048 907.312 338.039 906.598 334.469 906.598C328.247 906.598 323.045 908.689 318.863 912.871C314.783 917.053 312.335 922.969 311.519 930.619H354.206Z" fill="#777777"/>
<path d="M256.747 973V901.09H261.949L263.785 915.472C265.519 910.882 268.477 907.21 272.659 904.456C276.841 901.6 281.533 900.172 286.735 900.172C289.183 900.172 291.325 900.376 293.161 900.784C294.997 901.192 296.425 901.651 297.445 902.161L295.915 909.199C294.691 908.689 293.314 908.23 291.784 907.822C290.254 907.414 288.469 907.21 286.429 907.21C283.471 907.21 280.666 907.72 278.014 908.74C275.464 909.76 273.169 911.341 271.129 913.483C269.191 915.625 267.61 918.328 266.386 921.592C265.264 924.754 264.703 928.528 264.703 932.914V973H256.747Z" fill="#777777"/>
<path d="M0 370C0 70 173 0 370 0C567 0 740 70 740 370C740 670 567 740 370 740C173 740 0 670 0 370Z" fill="#FAFA00"/>
<path d="M413.6 545.2C412.2 538.2 411.267 532.367 410.8 527.7C410.8 522.567 410.567 516.733 410.1 510.2C394.233 526.067 377.2 537.733 359 545.2C341.267 552.667 322.833 556.4 303.7 556.4C271.967 556.4 247.467 547.767 230.2 530.5C213.4 513.233 205 492 205 466.8C205 444.4 211.067 425.5 223.2 410.1C235.333 394.233 251.2 381.4 270.8 371.6C290.4 361.333 312.1 353.633 335.9 348.5C359.7 342.9 383.267 339.867 406.6 339.4V300.9C406.6 287.367 404.967 275 401.7 263.8C398.9 252.133 393.533 243.033 385.6 236.5C377.667 229.5 366 226 350.6 226C340.333 226.467 329.833 228.8 319.1 233C308.833 236.733 300.667 242.8 294.6 251.2C298.333 255.4 300.667 260.067 301.6 265.2C302.533 269.867 303 274.067 303 277.8C303 286.2 299.733 295.067 293.2 304.4C286.667 313.267 276.167 317.467 261.7 317C249.1 316.533 239.3 312.1 232.3 303.7C225.767 295.3 222.5 285.267 222.5 273.6C222.5 255.867 228.8 240.467 241.4 227.4C254.467 213.867 271.967 203.367 293.9 195.9C315.833 187.967 340.333 184 367.4 184C407.533 184 438.333 194.5 459.8 215.5C481.267 236.5 491.767 270.1 491.3 316.3C491.3 332.633 491.3 347.567 491.3 361.1C491.3 374.167 491.067 387.467 490.6 401C490.6 414.067 490.6 428.767 490.6 445.1C490.6 452.1 490.367 460.967 489.9 471.7C489.433 481.967 488.733 492.233 487.8 502.5C496.2 501.567 504.6 501.1 513 501.1C521.867 500.633 529.1 500.167 534.7 499.7V545.2H413.6ZM405.9 380.7C391.9 381.633 378.133 383.967 364.6 387.7C351.067 390.967 338.933 395.633 328.2 401.7C317.467 407.767 308.833 415.467 302.3 424.8C296.233 433.667 293.433 443.933 293.9 455.6C294.367 470.067 299.033 480.8 307.9 487.8C316.767 494.333 327.033 497.6 338.7 497.6C352.233 497.6 364.367 494.8 375.1 489.2C386.3 483.6 396.567 476.133 405.9 466.8C405.9 462.133 405.9 457.233 405.9 452.1C405.9 446.967 405.9 441.833 405.9 436.7C405.9 430.167 405.9 422 405.9 412.2C405.9 402.4 405.9 391.9 405.9 380.7Z" fill="white"/>
</svg>
